# xmcd CD database file
#
# Track frame offsets:
#	150
#	18902
#	38587
#
# Disc length: 766 seconds
#
# Revision: 0
# Processed by: cddbd v1.5.1PL2 Copyright (c) Steve Scherf et al.
# Submitted via: CDex 1.51
#
DISCID=1502fc03
DTITLE=愛内 里菜 - MIRACLE
DYEAR=1900
DGENRE=J-Pop
TTITLE0=MIRACLE
TTITLE1=Especial thanks
TTITLE2=MIRACLE -Allegro vivace.mix-
EXTD=
EXTT0=
EXTT1=
EXTT2=
PLAYORDER=
